# xmcd
# 
# Track frame offsets:
#     150
#     17075
#     28875
#     46335
#     57465
#     74793
#     100319
#     114066
#     126642
#     140884
#     150889
#     168825
#     184985
#     202615
#     227791
#     247332
#     266581
#     283028
#     298754
#     313877
# 
# Disc length: 4376
# 
# Revision: 0
# Processed by: cddbd v1.5.2PL0 Copyright (c) Steve Scherf et al.
# Submitted via: fre:ac v1.0.17
# 
DISCID=37111614
DTITLE=Billie Holiday - Encore Of Golden Hits
DYEAR=2007
DGENRE=Blues
TTITLE0=Lady Sings the blues
TTITLE1=My man
TTITLE2=Autumn in New York
TTITLE3=I cried for you
TTITLE4=Nice work if you can get it
TTITLE5=All or nothing at all
TTITLE6=April in Paris
TTITLE7=Yesterdays
TTITLE8=I got a man crazy for me
TTITLE9=Too marvelous for words
TTITLE10=God bless the child
TTITLE11=These foolish things
TTITLE12=I don't want to cry anymore
TTITLE13=Prelude to a kiss
TTITLE14=Come rain or come shine
TTITLE15=What's new
TTITLE16=Stormy weather
TTITLE17=Good morning heartache
TTITLE18=Tenderly
TTITLE19=What a little moonlight can do
EXTD=
EXTT0=
EXTT1=
EXTT2=
EXTT3=
EXTT4=
EXTT5=
EXTT6=
EXTT7=
EXTT8=
EXTT9=
EXTT10=
EXTT11=
EXTT12=
EXTT13=
EXTT14=
EXTT15=
EXTT16=
EXTT17=
EXTT18=
EXTT19=
PLAYORDER=
